<?xml version="1.0" encoding="UTF-8"?>
<!DOCTYPE svg PUBLIC "-//W3C//DTD SVG 1.1//EN" "http://www.w3.org/Graphics/SVG/1.1/DTD/svg11.dtd">
<!-- Creator: CorelDRAW 2018 (64-Bit) -->
<svg xmlns="http://www.w3.org/2000/svg" xml:space="preserve" width="624px" height="742px" version="1.1" style="shape-rendering:geometricPrecision; text-rendering:geometricPrecision; image-rendering:optimizeQuality; fill-rule:evenodd; clip-rule:evenodd"
viewBox="0 0 186.3 221.37"
 xmlns:xlink="http://www.w3.org/1999/xlink">
 <defs>
  <style type="text/css">
   <![CDATA[
    .fil1 {fill:#FC5E38}
    .fil0 {fill:#FE423B}
    .fil3 {fill:#F17327;fill-opacity:0.901961}
    .fil2 {fill:#FC5E38;fill-opacity:0.901961}
   ]]>
  </style>
 </defs>
 <g id="Layer_x0020_1">
  <metadata id="CorelCorpID_0Corel-Layer"/>
  <g id="_2728204092064">
   <path class="fil0" d="M75.6 82.82c6.91,14.62 12.65,20.18 23.85,22.29 -3.62,-10.07 -8.36,-16.25 -23.85,-22.29z"/>
   <path class="fil1" d="M19.42 220.52c1.12,1.71 1.42,1.05 24.89,-3.88l99.58 -31.09c45.46,-21.53 55.91,-51.74 23.84,-86.46l-90.49 -83.27c-16.6,-14.73 -32.65,-19.21 -48.15,-13.28 -19.03,7.21 -29.96,15.5 -29.04,29.36 6.85,20.38 52.48,22.54 72.47,26.18 36.86,10.11 54.83,31.72 53.22,69.4 17.92,28.06 13.96,49.97 -20.02,58.07 3.55,-15.59 -2.69,-27.8 -15.62,-37.71 -19.3,-10.64 -36.49,-4.68 -51.9,7.68 9.62,0.48 12.68,3.85 11.66,6.56 -30.2,24.3 -32.99,37.48 -30.44,58.44z"/>
   <path class="fil2" d="M81.48 93.45l0.08 0.12 0.01 0.01c2.13,3.04 4.33,5.36 6.82,7.13l-10.5 -16.96 -0.09 -0.03 -2.2 -0.9 -0.06 -0.02c2.14,4.5 4.11,7.97 5.94,10.65z"/>
   <path class="fil3" d="M97.74 199.84l45.93 -14.34c45.47,-21.53 55.92,-51.74 23.84,-86.46l-45.05 -41.46c1.73,16.87 -12.08,7.68 -9.19,24.73l0 0c8.95,11.39 13.06,26.23 12.26,45.12 17.91,28.06 13.96,49.97 -20.02,58.07 0.7,-3.09 1.02,-6.05 0.98,-8.89l-1.55 2.24c-12.85,5.71 1.11,8 -7.2,20.99z"/>
  </g>
 </g>
</svg>
